<?xml version="1.0" encoding="iso-8859-1"?>
<!-- Generator: Adobe Illustrator 19.0.0, SVG Export Plug-In . SVG Version: 6.00 Build 0)  -->
<svg version="1.1" id="Capa_1" xmlns="http://www.w3.org/2000/svg" xmlns:xlink="http://www.w3.org/1999/xlink" x="0px" y="0px"
	 viewBox="0 0 512 512" style="enable-background:new 0 0 512 512;" xml:space="preserve">
<g>
	<g>
		<path d="M382.187,181.08l-17.303-26.339c-30.195,4.443-61.76,7.042-93.859,7.656v78.578h115.159v-0.001
			C385.735,219.983,384.356,199.98,382.187,181.08z"/>
	</g>
</g>
<g>
	<g>
		<path d="M133.799,152.589c-4.471,26.922-7.301,56.512-7.983,88.386h115.158v-78.584
			C204.115,161.669,167.969,158.331,133.799,152.589z"/>
	</g>
</g>
<g>
	<g>
		<path d="M271.026,271.026v78.583c36.859,0.722,73.005,4.06,107.176,9.802c4.47-26.922,7.301-56.512,7.982-88.385H271.026z"/>
	</g>
</g>
<g>
	<g>
		<path d="M125.816,271.026c0.681,31.851,3.508,61.421,7.973,88.328c34.181-5.725,70.332-9.046,107.185-9.751v-78.577H125.816z"/>
	</g>
</g>
<g>
	<g>
		<path d="M271.026,379.664V512c17.931-1.029,35.514-3.891,52.531-8.507c19.417-23.948,37.219-63.268,48.871-114.596
			C340.152,383.517,305.962,380.372,271.026,379.664z"/>
	</g>
</g>
<g>
	<g>
		<path d="M401.897,394.552c-3.587,15.96-7.817,31.27-12.678,45.778c-5.587,16.675-11.845,31.797-18.691,45.261
			c24.406-12.204,46.951-28.397,66.808-48.254c8.357-8.357,16.05-17.2,23.086-26.447
			C442.157,404.517,422.537,399.05,401.897,394.552z"/>
	</g>
</g>
<g>
	<g>
		<g>
			<path d="M139.559,388.841c11.652,51.355,29.46,90.695,48.883,114.652c17.017,4.616,34.6,7.478,52.531,8.507V379.658
				C206.041,380.35,171.846,383.478,139.559,388.841z"/>
			<polygon points="240.973,379.658 240.973,379.658 240.974,379.658 			"/>
		</g>
	</g>
</g>
<g>
	<g>
		<path d="M416.24,271.026c-0.681,32.631-3.573,64.246-8.571,94.039c24.854,5.386,48.359,12.114,69.99,20.08
			c20.206-34.547,32.006-73.436,34.341-114.119H416.24z"/>
	</g>
</g>
<g>
	<g>
		<path d="M488.803,148.16l-51.561,78.49c-2.778,4.229-7.499,6.776-12.559,6.776c-3.176,0-6.217-1.004-8.728-2.796
			c0.122,3.435,0.213,6.885,0.286,10.344H512C510.133,208.457,502.222,177.085,488.803,148.16z"/>
	</g>
</g>
<g>
	<g>
		<path d="M74.664,74.664c-8.357,8.357-16.05,17.2-23.086,26.447c18.265,6.372,37.886,11.839,58.526,16.337
			c3.587-15.959,7.817-31.268,12.677-45.775c5.587-16.676,11.846-31.799,18.692-45.263C117.066,38.614,94.522,54.807,74.664,74.664z
			"/>
	</g>
</g>
<g>
	<g>
		<path d="M346.893,46.689c-7.267-15.289-15.158-28.096-23.336-38.182c-17.016-4.616-34.6-7.478-52.531-8.507v132.342
			c25.776-0.511,51.149-2.352,75.653-5.434c-0.088-0.159-0.191-0.31-0.273-0.472C333.556,101.016,333.839,71.645,346.893,46.689z"/>
	</g>
</g>
<g>
	<g>
		<path d="M188.441,8.507c-19.415,23.949-37.217,63.268-48.869,114.595c32.275,5.38,66.466,8.525,101.401,9.233V0
			C223.042,1.029,205.459,3.891,188.441,8.507z"/>
	</g>
</g>
<g>
	<g>
		<path d="M95.76,271.027H0c2.333,40.64,14.111,79.49,34.277,114.01c21.648-7.955,45.171-14.672,70.041-20.046
			C99.328,335.219,96.44,303.63,95.76,271.027z"/>
	</g>
</g>
<g>
	<g>
		<path d="M34.341,126.855C14.135,161.402,2.335,200.291,0,240.974h95.76c0.681-32.631,3.573-64.246,8.571-94.04
			C79.477,141.548,55.972,134.82,34.341,126.855z"/>
	</g>
</g>
<g>
	<g>
		<path d="M122.782,440.33c-4.868-14.53-9.104-29.865-12.695-45.852c-20.659,4.489-40.3,9.947-58.585,16.312
			c7.057,9.283,14.775,18.159,23.162,26.546c19.858,19.858,42.402,36.05,66.808,48.254
			C134.627,472.127,128.369,457.005,122.782,440.33z"/>
	</g>
</g>
<g>
	<g>
		<path d="M473.806,57.022c-10.559-17.168-28.923-27.418-49.123-27.418c-20.201,0.001-38.566,10.251-49.124,27.418
			c-10.365,16.853-11.352,37.404-2.69,55.136l51.814,78.874l51.813-78.873C485.159,94.427,484.172,73.875,473.806,57.022z
			 M424.682,117.677c-17.364,0-31.44-14.04-31.44-31.359c0-17.319,14.076-31.359,31.44-31.359s31.44,14.04,31.44,31.359
			C456.122,103.637,442.046,117.677,424.682,117.677z"/>
	</g>
</g>
<g>
</g>
<g>
</g>
<g>
</g>
<g>
</g>
<g>
</g>
<g>
</g>
<g>
</g>
<g>
</g>
<g>
</g>
<g>
</g>
<g>
</g>
<g>
</g>
<g>
</g>
<g>
</g>
<g>
</g>
</svg>
